<?xml version="1.0" encoding="UTF-8" standalone="no"?>
<svg
   xmlns:dc="http://purl.org/dc/elements/1.1/"
   xmlns:cc="http://creativecommons.org/ns#"
   xmlns:rdf="http://www.w3.org/1999/02/22-rdf-syntax-ns#"
   xmlns:svg="http://www.w3.org/2000/svg"
   xmlns="http://www.w3.org/2000/svg"
   xmlns:sodipodi="http://sodipodi.sourceforge.net/DTD/sodipodi-0.dtd"
   xmlns:inkscape="http://www.inkscape.org/namespaces/inkscape"
   width="3200"
   height="2133.3333"
   viewBox="0 -410 3080 1900"
   id="svg2"
   sodipodi:version="0.32"
   inkscape:version="0.92.1 r15371"
   sodipodi:docname="psylogo_white.svg"
   inkscape:output_extension="org.inkscape.output.svg.inkscape"
   version="1.0">
  <metadata
     id="metadata15">
    <rdf:RDF>
      <cc:Work
         rdf:about="">
        <dc:format>image/svg+xml</dc:format>
        <dc:type
           rdf:resource="http://purl.org/dc/dcmitype/StillImage" />
        <dc:title></dc:title>
      </cc:Work>
    </rdf:RDF>
  </metadata>
  <defs
     id="defs13" />
  <sodipodi:namedview
     inkscape:window-height="1048"
     inkscape:window-width="1920"
     inkscape:pageshadow="2"
     inkscape:pageopacity="0.0"
     guidetolerance="10.0"
     gridtolerance="10.0"
     objecttolerance="10.0"
     borderopacity="1.0"
     bordercolor="#666666"
     pagecolor="#ffffff"
     id="base"
     inkscape:zoom="0.28209838"
     inkscape:cx="1320.2668"
     inkscape:cy="1401.7128"
     inkscape:window-x="0"
     inkscape:window-y="0"
     inkscape:current-layer="svg2"
     width="3000px"
     height="2000px"
     inkscape:showpageshadow="false"
     showgrid="false"
     inkscape:window-maximized="0" />
  <text
     xml:space="preserve"
     style="font-style:normal;font-weight:normal;line-height:0%;font-family:Lello;fill:#000000;fill-opacity:1;stroke:none;stroke-width:1px;stroke-linecap:butt;stroke-linejoin:miter;stroke-opacity:1"
     x="-471.24011"
     y="-946.41162"
     id="text2171"><tspan
       sodipodi:role="line"
       id="tspan2173"
       x="-471.24011"
       y="-946.41162"
       style="font-size:12px;line-height:1.25"> </tspan></text>
  <path
     style="font-style:normal;font-weight:normal;font-size:2050.27807617px;font-family:'Times New Roman';fill:#ffffff;fill-opacity:1;stroke:none;stroke-width:1px;stroke-linecap:butt;stroke-linejoin:miter;stroke-opacity:1"
     d="m 1634.9276,910.57102 c 90.7665,6.5e-4 159.6763,-15.34972 206.7296,-46.05117 47.0512,-30.70005 78.4194,-68.07487 94.1046,-112.12458 15.6829,-44.04809 25.8609,-117.46292 30.5339,-220.24472 4.6707,-114.12566 30.199,-199.05327 76.5851,-254.78309 46.3836,-55.72724 122.6349,-83.59151 228.7542,-83.59288 v 38.04227 c -38.0437,2.67096 -63.9058,17.52078 -77.5862,44.5495 -13.6833,27.03129 -20.5242,84.26149 -20.5228,171.69076 0,128.14338 -13.5164,227.08655 -40.5451,296.82981 -27.0313,69.74492 -81.2582,126.30771 -162.6807,169.68854 -81.4249,43.38215 -193.2157,66.74141 -335.3726,70.07787 V 1302.006 c -9e-4,78.0869 4.5041,128.6431 13.515,151.6685 9.0091,23.0257 28.0302,41.5463 57.0634,55.5618 29.0313,14.0156 73.9144,21.0233 134.6496,21.0233 v 37.0412 H 1237.486 v -37.0412 c 59.3988,-0.6674 103.6145,-7.1746 132.6473,-19.5217 29.0317,-12.347 48.3865,-30.367 58.0646,-54.06 9.6767,-23.6929 14.5154,-75.2502 14.5161,-154.6719 V 984.65333 C 1299.2207,981.31687 1187.7636,958.29131 1108.3425,915.57658 1028.9206,872.86315 975.02746,816.96776 946.66274,747.89026 918.29779,678.8144 904.11538,578.53641 904.1155,447.056 904.11538,362.96377 897.775,307.06839 885.09436,279.36968 872.41352,251.67356 846.05092,235.82263 806.00649,231.81685 v -38.04227 c 67.40814,1.33619 121.80185,12.01471 163.18135,32.03559 41.37906,20.02357 74.58266,55.39617 99.61066,106.11791 25.0275,50.72421 39.2099,117.46497 42.5473,200.22247 4.6715,102.1144 14.5158,175.19552 29.5328,219.2436 15.0163,44.04972 46.5513,81.59139 94.6051,112.62514 48.0529,31.03516 117.1296,46.55238 207.2303,46.55173 V 474.08604 c -7e-4,-78.0856 -4.5057,-128.64172 -13.515,-151.66853 -9.0107,-23.02431 -27.8649,-41.21117 -56.5629,-54.56062 -28.6991,-13.34685 -73.7491,-20.35463 -135.1501,-21.02336 v -37.04115 h 602.6696 v 37.04115 c -61.4026,0.66873 -106.4526,7.50966 -135.1502,20.52281 -28.6994,13.01574 -47.5537,31.2026 -56.5628,54.56062 -9.0109,23.36051 -13.5159,74.08348 -13.515,152.16908 z"
     id="text2175"
     inkscape:connector-curvature="0"
     sodipodi:nodetypes="csccccccccsccccccccccccccccccccccccccccccccccc" />
</svg>
